G04 #@! TF.GenerationSoftware,KiCad,Pcbnew,7.0.5*
G04 #@! TF.CreationDate,2023-06-26T03:35:33+05:30*
G04 #@! TF.ProjectId,STM32_Dev_Board_v0.1,53544d33-325f-4446-9576-5f426f617264,rev?*
G04 #@! TF.SameCoordinates,Original*
G04 #@! TF.FileFunction,Copper,L2,Bot*
G04 #@! TF.FilePolarity,Positive*
%FSLAX46Y46*%
G04 Gerber Fmt 4.6, Leading zero omitted, Abs format (unit mm)*
G04 Created by KiCad (PCBNEW 7.0.5) date 2023-06-26 03:35:33*
%MOMM*%
%LPD*%
G01*
G04 APERTURE LIST*
G04 #@! TA.AperFunction,ComponentPad*
%ADD10R,1.700000X1.700000*%
G04 #@! TD*
G04 #@! TA.AperFunction,ComponentPad*
%ADD11O,1.700000X1.700000*%
G04 #@! TD*
G04 #@! TA.AperFunction,ComponentPad*
%ADD12O,1.450000X2.000000*%
G04 #@! TD*
G04 #@! TA.AperFunction,ComponentPad*
%ADD13O,1.150000X1.800000*%
G04 #@! TD*
G04 #@! TA.AperFunction,ViaPad*
%ADD14C,0.600000*%
G04 #@! TD*
G04 #@! TA.AperFunction,Conductor*
%ADD15C,0.152400*%
G04 #@! TD*
G04 APERTURE END LIST*
D10*
X101600000Y-53340000D03*
D11*
X101600000Y-55880000D03*
X101600000Y-58420000D03*
X101600000Y-60960000D03*
X101600000Y-63500000D03*
X101600000Y-66040000D03*
X101600000Y-68580000D03*
X101600000Y-71120000D03*
X101600000Y-73660000D03*
X101600000Y-76200000D03*
X101600000Y-78740000D03*
X101600000Y-81280000D03*
X101600000Y-83820000D03*
X101600000Y-86360000D03*
X101600000Y-88900000D03*
X101600000Y-91440000D03*
X101600000Y-93980000D03*
X101600000Y-96520000D03*
X101600000Y-99060000D03*
X101600000Y-101600000D03*
D10*
X76200000Y-53340000D03*
D11*
X76200000Y-55880000D03*
X76200000Y-58420000D03*
X76200000Y-60960000D03*
X76200000Y-63500000D03*
X76200000Y-66040000D03*
X76200000Y-68580000D03*
X76200000Y-71120000D03*
X76200000Y-73660000D03*
X76200000Y-76200000D03*
X76200000Y-78740000D03*
X76200000Y-81280000D03*
X76200000Y-83820000D03*
X76200000Y-86360000D03*
X76200000Y-88900000D03*
X76200000Y-91440000D03*
X76200000Y-93980000D03*
X76200000Y-96520000D03*
X76200000Y-99060000D03*
X76200000Y-101600000D03*
D12*
X92665000Y-50001400D03*
X85215000Y-50001400D03*
D13*
X92815000Y-46201400D03*
X85065000Y-46201400D03*
D10*
X85125400Y-104267000D03*
D11*
X87665400Y-104267000D03*
X90205400Y-104267000D03*
X92745400Y-104267000D03*
D14*
X85107200Y-79088600D03*
X77373900Y-77255000D03*
X88658000Y-80608300D03*
X87201100Y-73336000D03*
X83539700Y-74618200D03*
X86667600Y-72802600D03*
X89650000Y-71717700D03*
X90585300Y-69114000D03*
X91345300Y-69119700D03*
X91150000Y-71728100D03*
X91733800Y-67814900D03*
X93538000Y-67917900D03*
X92267300Y-66720900D03*
X92025200Y-64995800D03*
X90044600Y-81286200D03*
X89996400Y-80517000D03*
X88139700Y-80059800D03*
X88658100Y-77636300D03*
X91179700Y-75790900D03*
X90580600Y-76405000D03*
X91870100Y-76935500D03*
X82991200Y-75345900D03*
X83541400Y-75876500D03*
X87900900Y-77639400D03*
X86831600Y-77301000D03*
X87150000Y-80040000D03*
X88609300Y-69260600D03*
X95138600Y-56058000D03*
X90240000Y-51159400D03*
X84995500Y-66199300D03*
X91846500Y-74900500D03*
X91079400Y-74953100D03*
X85292400Y-67564000D03*
D15*
X79207500Y-79088600D02*
X85107200Y-79088600D01*
X77373900Y-77255000D02*
X79207500Y-79088600D01*
X101600000Y-91440000D02*
X101600000Y-90359500D01*
X89287300Y-79979000D02*
X88658000Y-80608300D01*
X91291800Y-79979000D02*
X89287300Y-79979000D01*
X96402800Y-85090000D02*
X91291800Y-79979000D01*
X101887000Y-85090000D02*
X96402800Y-85090000D01*
X102700100Y-85903100D02*
X101887000Y-85090000D01*
X102700100Y-89371300D02*
X102700100Y-85903100D01*
X101711900Y-90359500D02*
X102700100Y-89371300D01*
X101600000Y-90359500D02*
X101711900Y-90359500D01*
X101600000Y-78740000D02*
X100519500Y-78740000D01*
X95115500Y-73336000D02*
X87201100Y-73336000D01*
X100519500Y-78740000D02*
X95115500Y-73336000D01*
X101600000Y-76200000D02*
X101600000Y-77280500D01*
X84958800Y-76037300D02*
X83539700Y-74618200D01*
X88911600Y-76037300D02*
X84958800Y-76037300D01*
X92744800Y-79870500D02*
X88911600Y-76037300D01*
X102065500Y-79870500D02*
X92744800Y-79870500D01*
X102720800Y-79215200D02*
X102065500Y-79870500D01*
X102720800Y-78289400D02*
X102720800Y-79215200D01*
X101711900Y-77280500D02*
X102720800Y-78289400D01*
X101600000Y-77280500D02*
X101711900Y-77280500D01*
X101600000Y-73660000D02*
X100519500Y-73660000D01*
X99662100Y-72802600D02*
X86667600Y-72802600D01*
X100519500Y-73660000D02*
X99662100Y-72802600D01*
X101600000Y-71120000D02*
X100519500Y-71120000D01*
X90229000Y-72296700D02*
X89650000Y-71717700D01*
X99342800Y-72296700D02*
X90229000Y-72296700D01*
X100519500Y-71120000D02*
X99342800Y-72296700D01*
X101600000Y-68580000D02*
X100519500Y-68580000D01*
X91131700Y-69660400D02*
X90585300Y-69114000D01*
X99439100Y-69660400D02*
X91131700Y-69660400D01*
X100519500Y-68580000D02*
X99439100Y-69660400D01*
X101600000Y-66040000D02*
X100519500Y-66040000D01*
X97439800Y-69119700D02*
X91345300Y-69119700D01*
X100519500Y-66040000D02*
X97439800Y-69119700D01*
X101600000Y-63500000D02*
X100519500Y-63500000D01*
X90053600Y-70631700D02*
X91150000Y-71728100D01*
X90053600Y-68810600D02*
X90053600Y-70631700D01*
X90320400Y-68543800D02*
X90053600Y-68810600D01*
X95475700Y-68543800D02*
X90320400Y-68543800D01*
X100519500Y-63500000D02*
X95475700Y-68543800D01*
X91733800Y-67814800D02*
X91733800Y-67814900D01*
X91923600Y-67814800D02*
X91733800Y-67814800D01*
X98778400Y-60960000D02*
X91923600Y-67814800D01*
X101600000Y-60960000D02*
X98778400Y-60960000D01*
X101600000Y-58420000D02*
X101600000Y-59500500D01*
X101711900Y-59500500D02*
X101600000Y-59500500D01*
X102694300Y-60482900D02*
X101711900Y-59500500D01*
X102694300Y-61461700D02*
X102694300Y-60482900D01*
X101926000Y-62230000D02*
X102694300Y-61461700D01*
X99225900Y-62230000D02*
X101926000Y-62230000D01*
X93538000Y-67917900D02*
X99225900Y-62230000D01*
X101488100Y-56960500D02*
X101600000Y-56960500D01*
X92267300Y-66181300D02*
X101488100Y-56960500D01*
X92267300Y-66720900D02*
X92267300Y-66181300D01*
X101600000Y-55880000D02*
X101600000Y-56960500D01*
X101600000Y-53340000D02*
X101600000Y-54420500D01*
X101464900Y-54420500D02*
X101600000Y-54420500D01*
X92025200Y-63860200D02*
X101464900Y-54420500D01*
X92025200Y-64995800D02*
X92025200Y-63860200D01*
X87510800Y-83820000D02*
X90044600Y-81286200D01*
X76200000Y-83820000D02*
X87510800Y-83820000D01*
X76200000Y-81280000D02*
X77280500Y-81280000D01*
X89233400Y-81280000D02*
X89996400Y-80517000D01*
X77280500Y-81280000D02*
X89233400Y-81280000D01*
X76200000Y-78740000D02*
X77280500Y-78740000D01*
X87545600Y-79465700D02*
X88139700Y-80059800D01*
X85480400Y-79465700D02*
X87545600Y-79465700D01*
X85327000Y-79619100D02*
X85480400Y-79465700D01*
X78159600Y-79619100D02*
X85327000Y-79619100D01*
X77280500Y-78740000D02*
X78159600Y-79619100D01*
X76200000Y-76200000D02*
X77280500Y-76200000D01*
X79252500Y-78172000D02*
X77280500Y-76200000D01*
X88122400Y-78172000D02*
X79252500Y-78172000D01*
X88658100Y-77636300D02*
X88122400Y-78172000D01*
X76311900Y-59500500D02*
X76200000Y-59500500D01*
X85179500Y-68368100D02*
X76311900Y-59500500D01*
X85179500Y-72941500D02*
X85179500Y-68368100D01*
X87355200Y-75117200D02*
X85179500Y-72941500D01*
X89508500Y-75117200D02*
X87355200Y-75117200D01*
X90182200Y-75790900D02*
X89508500Y-75117200D01*
X91179700Y-75790900D02*
X90182200Y-75790900D01*
X76200000Y-58420000D02*
X76200000Y-59500500D01*
X76200000Y-55880000D02*
X76200000Y-56960500D01*
X90146800Y-76405000D02*
X90580600Y-76405000D01*
X89165700Y-75423900D02*
X90146800Y-76405000D01*
X87126900Y-75423900D02*
X89165700Y-75423900D01*
X76473000Y-64770000D02*
X87126900Y-75423900D01*
X75940500Y-64770000D02*
X76473000Y-64770000D01*
X74764700Y-63594200D02*
X75940500Y-64770000D01*
X74764700Y-57855500D02*
X74764700Y-63594200D01*
X75659700Y-56960500D02*
X74764700Y-57855500D01*
X76200000Y-56960500D02*
X75659700Y-56960500D01*
X76200000Y-53340000D02*
X76200000Y-54420500D01*
X90243600Y-76935500D02*
X91870100Y-76935500D01*
X89038700Y-75730600D02*
X90243600Y-76935500D01*
X86957500Y-75730600D02*
X89038700Y-75730600D01*
X78536900Y-67310000D02*
X86957500Y-75730600D01*
X75925700Y-67310000D02*
X78536900Y-67310000D01*
X74458000Y-65842300D02*
X75925700Y-67310000D01*
X74458000Y-56027400D02*
X74458000Y-65842300D01*
X76064900Y-54420500D02*
X74458000Y-56027400D01*
X76200000Y-54420500D02*
X76064900Y-54420500D01*
X92815000Y-48620900D02*
X92665000Y-48770900D01*
X92815000Y-46201400D02*
X92815000Y-48620900D01*
X92665000Y-50001400D02*
X92665000Y-48770900D01*
X92665000Y-50001400D02*
X91709500Y-50001400D01*
X85215000Y-50001400D02*
X91709500Y-50001400D01*
X85065000Y-48620900D02*
X85215000Y-48770900D01*
X85065000Y-46201400D02*
X85065000Y-48620900D01*
X85215000Y-50001400D02*
X85215000Y-48770900D01*
X101600000Y-81280000D02*
X100519500Y-81280000D01*
X93720500Y-81280000D02*
X100519500Y-81280000D01*
X88784500Y-76344000D02*
X93720500Y-81280000D01*
X84767100Y-76344000D02*
X88784500Y-76344000D01*
X83769000Y-75345900D02*
X84767100Y-76344000D01*
X82991200Y-75345900D02*
X83769000Y-75345900D01*
X101600000Y-83820000D02*
X100519500Y-83820000D01*
X95826700Y-83820000D02*
X100519500Y-83820000D01*
X88690400Y-76683700D02*
X95826700Y-83820000D01*
X84348600Y-76683700D02*
X88690400Y-76683700D01*
X83541400Y-75876500D02*
X84348600Y-76683700D01*
X76200000Y-73660000D02*
X77280500Y-73660000D01*
X87708800Y-77831500D02*
X87900900Y-77639400D01*
X81452000Y-77831500D02*
X87708800Y-77831500D01*
X77280500Y-73660000D02*
X81452000Y-77831500D01*
X76200000Y-71120000D02*
X77280500Y-71120000D01*
X83461500Y-77301000D02*
X86831600Y-77301000D01*
X77280500Y-71120000D02*
X83461500Y-77301000D01*
X76200000Y-68580000D02*
X76200000Y-69660500D01*
X76064900Y-69660500D02*
X76200000Y-69660500D01*
X75110500Y-70614900D02*
X76064900Y-69660500D01*
X75110500Y-79252200D02*
X75110500Y-70614900D01*
X75898300Y-80040000D02*
X75110500Y-79252200D01*
X87150000Y-80040000D02*
X75898300Y-80040000D01*
X76200000Y-63500000D02*
X76200000Y-62419500D01*
X88609300Y-69020900D02*
X88609300Y-69260600D01*
X76891700Y-57303300D02*
X88609300Y-69020900D01*
X75768600Y-57303300D02*
X76891700Y-57303300D01*
X75119500Y-57952400D02*
X75768600Y-57303300D01*
X75119500Y-61451000D02*
X75119500Y-57952400D01*
X76088000Y-62419500D02*
X75119500Y-61451000D01*
X76200000Y-62419500D02*
X76088000Y-62419500D01*
X101600000Y-88900000D02*
X101600000Y-89980500D01*
X90205400Y-101285300D02*
X90205400Y-104267000D01*
X101510200Y-89980500D02*
X90205400Y-101285300D01*
X101600000Y-89980500D02*
X101510200Y-89980500D01*
X101488000Y-87440500D02*
X101600000Y-87440500D01*
X87665400Y-101263100D02*
X101488000Y-87440500D01*
X87665400Y-104267000D02*
X87665400Y-101263100D01*
X101600000Y-86360000D02*
X101600000Y-87440500D01*
X90240000Y-51159400D02*
X95138600Y-56058000D01*
X85859500Y-67063300D02*
X84995500Y-66199300D01*
X85859500Y-72744900D02*
X85859500Y-67063300D01*
X87121200Y-74006600D02*
X85859500Y-72744900D01*
X90952600Y-74006600D02*
X87121200Y-74006600D01*
X91846500Y-74900500D02*
X90952600Y-74006600D01*
X85486200Y-67757800D02*
X85292400Y-67564000D01*
X85486200Y-72805500D02*
X85486200Y-67757800D01*
X86994000Y-74313300D02*
X85486200Y-72805500D01*
X90439600Y-74313300D02*
X86994000Y-74313300D01*
X91079400Y-74953100D02*
X90439600Y-74313300D01*
X84545800Y-101600000D02*
X76200000Y-101600000D01*
X86287400Y-103341600D02*
X84545800Y-101600000D01*
X86287400Y-104417000D02*
X86287400Y-103341600D01*
X87250300Y-105379900D02*
X86287400Y-104417000D01*
X90687100Y-105379900D02*
X87250300Y-105379900D01*
X91664900Y-104402100D02*
X90687100Y-105379900D01*
X91664900Y-104267000D02*
X91664900Y-104402100D01*
X92745400Y-104267000D02*
X91664900Y-104267000D01*
X101600000Y-99060000D02*
X100519500Y-99060000D01*
X93859000Y-105720500D02*
X100519500Y-99060000D01*
X86578900Y-105720500D02*
X93859000Y-105720500D01*
X85125400Y-104267000D02*
X86578900Y-105720500D01*
G04 #@! TA.AperFunction,Conductor*
G36*
X99061279Y-43180552D02*
G01*
X99277547Y-43189497D01*
X99482732Y-43198456D01*
X99487654Y-43198870D01*
X99705758Y-43226057D01*
X99910849Y-43253058D01*
X99915420Y-43253837D01*
X100130328Y-43298898D01*
X100332714Y-43343766D01*
X100336969Y-43344869D01*
X100547452Y-43407533D01*
X100745378Y-43469939D01*
X100749180Y-43471277D01*
X100953348Y-43550944D01*
X100954453Y-43551388D01*
X101090777Y-43607856D01*
X101145763Y-43630632D01*
X101149246Y-43632202D01*
X101346123Y-43728450D01*
X101347341Y-43729064D01*
X101477930Y-43797045D01*
X101531061Y-43824704D01*
X101534170Y-43826437D01*
X101722329Y-43938555D01*
X101723839Y-43939485D01*
X101898522Y-44050771D01*
X101901212Y-44052586D01*
X102079439Y-44179838D01*
X102081155Y-44181109D01*
X102245405Y-44307142D01*
X102247733Y-44309019D01*
X102414843Y-44450554D01*
X102416648Y-44452143D01*
X102569339Y-44592059D01*
X102571255Y-44593893D01*
X102726104Y-44748742D01*
X102727942Y-44750662D01*
X102852261Y-44886332D01*
X102867844Y-44903338D01*
X102869444Y-44905155D01*
X103010979Y-45072265D01*
X103012856Y-45074593D01*
X103138889Y-45238843D01*
X103140160Y-45240559D01*
X103267412Y-45418786D01*
X103269239Y-45421494D01*
X103380490Y-45596123D01*
X103381443Y-45597669D01*
X103493561Y-45785828D01*
X103495294Y-45788937D01*
X103590896Y-45972583D01*
X103591582Y-45973942D01*
X103617400Y-46026754D01*
X103687786Y-46170731D01*
X103689366Y-46174235D01*
X103768596Y-46365512D01*
X103769074Y-46366701D01*
X103801194Y-46449017D01*
X103848708Y-46570785D01*
X103850072Y-46574657D01*
X103912463Y-46772540D01*
X103975124Y-46983013D01*
X103976232Y-46987286D01*
X104021103Y-47189682D01*
X104066157Y-47404559D01*
X104066947Y-47409192D01*
X104093943Y-47614252D01*
X104121126Y-47832322D01*
X104121543Y-47837288D01*
X104130518Y-48042843D01*
X104139447Y-48258718D01*
X104139500Y-48261280D01*
X104139500Y-101598719D01*
X104139447Y-101601281D01*
X104130518Y-101817156D01*
X104121543Y-102022710D01*
X104121126Y-102027676D01*
X104093943Y-102245746D01*
X104066947Y-102450806D01*
X104066157Y-102455439D01*
X104021103Y-102670316D01*
X103976232Y-102872712D01*
X103975124Y-102876985D01*
X103912463Y-103087458D01*
X103850072Y-103285341D01*
X103848701Y-103289232D01*
X103841458Y-103307797D01*
X103769074Y-103493297D01*
X103768596Y-103494486D01*
X103689366Y-103685763D01*
X103687786Y-103689267D01*
X103591602Y-103886016D01*
X103590896Y-103887415D01*
X103495294Y-104071061D01*
X103493561Y-104074170D01*
X103381443Y-104262329D01*
X103380472Y-104263905D01*
X103269244Y-104438497D01*
X103267412Y-104441212D01*
X103140160Y-104619439D01*
X103138889Y-104621155D01*
X103012856Y-104785405D01*
X103010979Y-104787733D01*
X102869444Y-104954843D01*
X102867844Y-104956660D01*
X102727952Y-105109325D01*
X102726082Y-105111279D01*
X102571279Y-105266082D01*
X102569325Y-105267952D01*
X102416660Y-105407844D01*
X102414843Y-105409444D01*
X102247733Y-105550979D01*
X102245405Y-105552856D01*
X102081155Y-105678889D01*
X102079439Y-105680160D01*
X101901212Y-105807412D01*
X101898497Y-105809244D01*
X101723905Y-105920472D01*
X101722329Y-105921443D01*
X101534170Y-106033561D01*
X101531061Y-106035294D01*
X101347415Y-106130896D01*
X101346016Y-106131602D01*
X101149267Y-106227786D01*
X101145763Y-106229366D01*
X100954486Y-106308596D01*
X100953297Y-106309074D01*
X100749237Y-106388700D01*
X100745341Y-106390072D01*
X100547458Y-106452463D01*
X100336985Y-106515124D01*
X100332712Y-106516232D01*
X100130316Y-106561103D01*
X99915439Y-106606157D01*
X99910806Y-106606947D01*
X99705746Y-106633943D01*
X99487676Y-106661126D01*
X99482710Y-106661543D01*
X99277266Y-106670513D01*
X99067125Y-106679205D01*
X99061280Y-106679447D01*
X99058720Y-106679500D01*
X78741280Y-106679500D01*
X78738719Y-106679447D01*
X78732264Y-106679180D01*
X78522732Y-106670513D01*
X78317288Y-106661543D01*
X78312322Y-106661126D01*
X78094252Y-106633943D01*
X77889192Y-106606947D01*
X77884559Y-106606157D01*
X77669682Y-106561103D01*
X77467286Y-106516232D01*
X77463013Y-106515124D01*
X77252540Y-106452463D01*
X77054657Y-106390072D01*
X77050785Y-106388708D01*
X76918255Y-106336995D01*
X76846701Y-106309074D01*
X76845512Y-106308596D01*
X76654235Y-106229366D01*
X76650731Y-106227786D01*
X76587908Y-106197074D01*
X76453942Y-106131582D01*
X76452583Y-106130896D01*
X76268937Y-106035294D01*
X76265828Y-106033561D01*
X76077669Y-105921443D01*
X76076123Y-105920490D01*
X75901494Y-105809239D01*
X75898786Y-105807412D01*
X75720559Y-105680160D01*
X75718843Y-105678889D01*
X75554593Y-105552856D01*
X75552265Y-105550979D01*
X75385155Y-105409444D01*
X75383338Y-105407844D01*
X75230673Y-105267952D01*
X75228742Y-105266104D01*
X75073893Y-105111255D01*
X75072059Y-105109339D01*
X74932143Y-104956648D01*
X74930554Y-104954843D01*
X74789019Y-104787733D01*
X74787142Y-104785405D01*
X74661109Y-104621155D01*
X74659838Y-104619439D01*
X74644387Y-104597798D01*
X74532580Y-104441203D01*
X74530771Y-104438522D01*
X74419485Y-104263839D01*
X74418555Y-104262329D01*
X74306437Y-104074170D01*
X74304704Y-104071061D01*
X74276561Y-104016999D01*
X74209064Y-103887341D01*
X74208450Y-103886123D01*
X74112202Y-103689246D01*
X74110632Y-103685763D01*
X74031402Y-103494486D01*
X74030943Y-103493346D01*
X73951277Y-103289180D01*
X73949939Y-103285378D01*
X73887529Y-103087438D01*
X73883503Y-103073914D01*
X73824869Y-102876969D01*
X73823766Y-102872712D01*
X73778896Y-102670316D01*
X73733837Y-102455420D01*
X73733058Y-102450849D01*
X73706055Y-102245746D01*
X73678870Y-102027654D01*
X73678456Y-102022732D01*
X73669502Y-101817672D01*
X73660552Y-101601280D01*
X73660500Y-101598719D01*
X73660500Y-66068248D01*
X73680185Y-66001209D01*
X73732989Y-65955454D01*
X73802147Y-65945510D01*
X73865703Y-65974535D01*
X73899061Y-66020796D01*
X73925568Y-66084789D01*
X73947266Y-66137173D01*
X73981121Y-66181295D01*
X73981126Y-66181300D01*
X73991548Y-66194883D01*
X74040987Y-66259313D01*
X74068435Y-66280374D01*
X74074525Y-66285715D01*
X74656911Y-66868101D01*
X75235358Y-67446548D01*
X75268843Y-67507871D01*
X75263859Y-67577563D01*
X75238907Y-67618212D01*
X75124279Y-67742730D01*
X75124276Y-67742734D01*
X75001140Y-67931207D01*
X74910703Y-68137385D01*
X74855436Y-68355628D01*
X74855434Y-68355640D01*
X74836844Y-68579994D01*
X74836844Y-68580005D01*
X74855434Y-68804359D01*
X74855436Y-68804371D01*
X74910703Y-69022614D01*
X75001140Y-69228792D01*
X75124276Y-69417265D01*
X75124279Y-69417269D01*
X75214796Y-69515596D01*
X75245718Y-69578250D01*
X75237858Y-69647677D01*
X75211247Y-69687260D01*
X74727035Y-70171474D01*
X74720933Y-70176825D01*
X74693489Y-70197885D01*
X74693488Y-70197886D01*
X74693487Y-70197887D01*
X74653312Y-70250245D01*
X74653311Y-70250244D01*
X74599766Y-70320026D01*
X74582510Y-70361687D01*
X74540851Y-70462259D01*
X74540849Y-70462264D01*
X74525800Y-70576579D01*
X74520755Y-70614899D01*
X74520755Y-70614900D01*
X74525269Y-70649185D01*
X74525800Y-70657286D01*
X74525800Y-79209813D01*
X74525269Y-79217914D01*
X74520755Y-79252199D01*
X74520755Y-79252202D01*
X74525178Y-79285800D01*
X74525181Y-79285821D01*
X74540850Y-79404838D01*
X74567987Y-79470351D01*
X74599764Y-79547070D01*
X74599765Y-79547072D01*
X74599766Y-79547073D01*
X74622936Y-79577268D01*
X74646453Y-79607916D01*
X74685361Y-79658624D01*
X74693487Y-79669213D01*
X74720935Y-79690274D01*
X74727025Y-79695615D01*
X75144646Y-80113237D01*
X75207845Y-80176436D01*
X75241330Y-80237759D01*
X75236346Y-80307451D01*
X75211393Y-80348100D01*
X75124284Y-80442723D01*
X75124276Y-80442734D01*
X75001140Y-80631207D01*
X74910703Y-80837385D01*
X74855436Y-81055628D01*
X74855434Y-81055640D01*
X74836844Y-81279994D01*
X74836844Y-81280005D01*
X74855434Y-81504359D01*
X74855436Y-81504371D01*
X74910703Y-81722614D01*
X75001140Y-81928792D01*
X75124276Y-82117265D01*
X75124284Y-82117276D01*
X75276756Y-82282902D01*
X75276760Y-82282906D01*
X75454424Y-82421189D01*
X75454429Y-82421191D01*
X75454431Y-82421193D01*
X75490930Y-82440946D01*
X75540520Y-82490165D01*
X75555628Y-82558382D01*
X75531457Y-82623937D01*
X75490930Y-82659054D01*
X75454431Y-82678806D01*
X75454422Y-82678812D01*
X75276761Y-82817092D01*
X75276756Y-82817097D01*
X75124284Y-82982723D01*
X75124276Y-82982734D01*
X75001140Y-83171207D01*
X74910703Y-83377385D01*
X74855436Y-83595628D01*
X74855434Y-83595640D01*
X74836844Y-83819994D01*
X74836844Y-83820005D01*
X74855434Y-84044359D01*
X74855436Y-84044371D01*
X74910703Y-84262614D01*
X75001140Y-84468792D01*
X75124276Y-84657265D01*
X75124284Y-84657276D01*
X75276756Y-84822902D01*
X75276760Y-84822906D01*
X75454424Y-84961189D01*
X75454429Y-84961191D01*
X75454431Y-84961193D01*
X75490930Y-84980946D01*
X75540520Y-85030165D01*
X75555628Y-85098382D01*
X75531457Y-85163937D01*
X75490930Y-85199054D01*
X75454431Y-85218806D01*
X75454422Y-85218812D01*
X75276761Y-85357092D01*
X75276756Y-85357097D01*
X75124284Y-85522723D01*
X75124276Y-85522734D01*
X75001140Y-85711207D01*
X74910703Y-85917385D01*
X74855436Y-86135628D01*
X74855434Y-86135640D01*
X74836844Y-86359994D01*
X74836844Y-86360005D01*
X74855434Y-86584359D01*
X74855436Y-86584371D01*
X74910703Y-86802614D01*
X75001140Y-87008792D01*
X75124276Y-87197265D01*
X75124284Y-87197276D01*
X75276756Y-87362902D01*
X75276760Y-87362906D01*
X75454424Y-87501189D01*
X75454429Y-87501191D01*
X75454431Y-87501193D01*
X75490930Y-87520946D01*
X75540520Y-87570165D01*
X75555628Y-87638382D01*
X75531457Y-87703937D01*
X75490930Y-87739054D01*
X75454431Y-87758806D01*
X75454422Y-87758812D01*
X75276761Y-87897092D01*
X75276756Y-87897097D01*
X75124284Y-88062723D01*
X75124276Y-88062734D01*
X75001140Y-88251207D01*
X74910703Y-88457385D01*
X74855436Y-88675628D01*
X74855434Y-88675640D01*
X74836844Y-88899994D01*
X74836844Y-88900005D01*
X74855434Y-89124359D01*
X74855436Y-89124371D01*
X74910703Y-89342614D01*
X75001140Y-89548792D01*
X75124276Y-89737265D01*
X75124284Y-89737276D01*
X75276756Y-89902902D01*
X75276760Y-89902906D01*
X75454424Y-90041189D01*
X75454429Y-90041191D01*
X75454431Y-90041193D01*
X75490930Y-90060946D01*
X75540520Y-90110165D01*
X75555628Y-90178382D01*
X75531457Y-90243937D01*
X75490930Y-90279054D01*
X75454431Y-90298806D01*
X75454422Y-90298812D01*
X75276761Y-90437092D01*
X75276756Y-90437097D01*
X75124284Y-90602723D01*
X75124276Y-90602734D01*
X75001140Y-90791207D01*
X74910703Y-90997385D01*
X74855436Y-91215628D01*
X74855434Y-91215640D01*
X74836844Y-91439994D01*
X74836844Y-91440005D01*
X74855434Y-91664359D01*
X74855436Y-91664371D01*
X74910703Y-91882614D01*
X75001140Y-92088792D01*
X75124276Y-92277265D01*
X75124284Y-92277276D01*
X75276756Y-92442902D01*
X75276760Y-92442906D01*
X75454424Y-92581189D01*
X75454429Y-92581191D01*
X75454431Y-92581193D01*
X75490930Y-92600946D01*
X75540520Y-92650165D01*
X75555628Y-92718382D01*
X75531457Y-92783937D01*
X75490930Y-92819054D01*
X75454431Y-92838806D01*
X75454422Y-92838812D01*
X75276761Y-92977092D01*
X75276756Y-92977097D01*
X75124284Y-93142723D01*
X75124276Y-93142734D01*
X75001140Y-93331207D01*
X74910703Y-93537385D01*
X74855436Y-93755628D01*
X74855434Y-93755640D01*
X74836844Y-93979994D01*
X74836844Y-93980005D01*
X74855434Y-94204359D01*
X74855436Y-94204371D01*
X74910703Y-94422614D01*
X75001140Y-94628792D01*
X75124276Y-94817265D01*
X75124284Y-94817276D01*
X75276756Y-94982902D01*
X75276760Y-94982906D01*
X75454424Y-95121189D01*
X75454429Y-95121191D01*
X75454431Y-95121193D01*
X75490930Y-95140946D01*
X75540520Y-95190165D01*
X75555628Y-95258382D01*
X75531457Y-95323937D01*
X75490930Y-95359054D01*
X75454431Y-95378806D01*
X75454422Y-95378812D01*
X75276761Y-95517092D01*
X75276756Y-95517097D01*
X75124284Y-95682723D01*
X75124276Y-95682734D01*
X75001140Y-95871207D01*
X74910703Y-96077385D01*
X74855436Y-96295628D01*
X74855434Y-96295640D01*
X74836844Y-96519994D01*
X74836844Y-96520005D01*
X74855434Y-96744359D01*
X74855436Y-96744371D01*
X74910703Y-96962614D01*
X75001140Y-97168792D01*
X75124276Y-97357265D01*
X75124284Y-97357276D01*
X75276756Y-97522902D01*
X75276760Y-97522906D01*
X75454424Y-97661189D01*
X75454429Y-97661191D01*
X75454431Y-97661193D01*
X75490930Y-97680946D01*
X75540520Y-97730165D01*
X75555628Y-97798382D01*
X75531457Y-97863937D01*
X75490930Y-97899054D01*
X75454431Y-97918806D01*
X75454422Y-97918812D01*
X75276761Y-98057092D01*
X75276756Y-98057097D01*
X75124284Y-98222723D01*
X75124276Y-98222734D01*
X75001140Y-98411207D01*
X74910703Y-98617385D01*
X74855436Y-98835628D01*
X74855434Y-98835640D01*
X74836844Y-99059994D01*
X74836844Y-99060005D01*
X74855434Y-99284359D01*
X74855436Y-99284371D01*
X74910703Y-99502614D01*
X75001140Y-99708792D01*
X75124276Y-99897265D01*
X75124284Y-99897276D01*
X75276756Y-100062902D01*
X75276760Y-100062906D01*
X75454424Y-100201189D01*
X75497693Y-100224605D01*
X75497695Y-100224606D01*
X75547286Y-100273825D01*
X75562394Y-100342042D01*
X75538224Y-100407597D01*
X75509802Y-100435236D01*
X75328922Y-100561890D01*
X75328920Y-100561891D01*
X75161891Y-100728920D01*
X75161886Y-100728926D01*
X75026400Y-100922420D01*
X75026399Y-100922422D01*
X74926570Y-101136507D01*
X74926567Y-101136513D01*
X74869364Y-101349999D01*
X74869364Y-101350000D01*
X75766314Y-101350000D01*
X75740507Y-101390156D01*
X75700000Y-101528111D01*
X75700000Y-101671889D01*
X75740507Y-101809844D01*
X75766314Y-101850000D01*
X74869364Y-101850000D01*
X74926567Y-102063486D01*
X74926570Y-102063492D01*
X75026399Y-102277578D01*
X75161894Y-102471082D01*
X75328917Y-102638105D01*
X75522421Y-102773600D01*
X75736507Y-102873429D01*
X75736516Y-102873433D01*
X75950000Y-102930634D01*
X75950000Y-102035501D01*
X76057685Y-102084680D01*
X76164237Y-102100000D01*
X76235763Y-102100000D01*
X76342315Y-102084680D01*
X76450000Y-102035501D01*
X76450000Y-102930633D01*
X76663483Y-102873433D01*
X76663492Y-102873429D01*
X76877578Y-102773600D01*
X77071082Y-102638105D01*
X77238105Y-102471082D01*
X77373600Y-102277578D01*
X77473429Y-102063492D01*
X77473432Y-102063486D01*
X77530636Y-101850000D01*
X76633686Y-101850000D01*
X76659493Y-101809844D01*
X76700000Y-101671889D01*
X76700000Y-101528111D01*
X76659493Y-101390156D01*
X76633686Y-101350000D01*
X77530636Y-101350000D01*
X77530635Y-101349999D01*
X77473432Y-101136513D01*
X77473429Y-101136507D01*
X77373600Y-100922422D01*
X77373599Y-100922420D01*
X77238113Y-100728926D01*
X77238108Y-100728920D01*
X77071082Y-100561894D01*
X76890197Y-100435236D01*
X76846572Y-100380659D01*
X76839380Y-100311160D01*
X76870902Y-100248806D01*
X76902300Y-100224608D01*
X76945576Y-100201189D01*
X77123240Y-100062906D01*
X77275722Y-99897268D01*
X77398860Y-99708791D01*
X77489296Y-99502616D01*
X77544564Y-99284368D01*
X77563156Y-99060000D01*
X77544564Y-98835632D01*
X77489296Y-98617384D01*
X77398860Y-98411209D01*
X77398855Y-98411202D01*
X77275723Y-98222734D01*
X77275715Y-98222723D01*
X77123243Y-98057097D01*
X77123238Y-98057092D01*
X76945577Y-97918812D01*
X76945578Y-97918812D01*
X76945576Y-97918811D01*
X76909070Y-97899055D01*
X76859479Y-97849836D01*
X76844371Y-97781619D01*
X76868541Y-97716064D01*
X76909070Y-97680945D01*
X76909084Y-97680936D01*
X76945576Y-97661189D01*
X77123240Y-97522906D01*
X77275722Y-97357268D01*
X77398860Y-97168791D01*
X77489296Y-96962616D01*
X77544564Y-96744368D01*
X77563156Y-96520000D01*
X77544564Y-96295632D01*
X77489296Y-96077384D01*
X77398860Y-95871209D01*
X77275722Y-95682732D01*
X77275719Y-95682729D01*
X77275715Y-95682723D01*
X77123243Y-95517097D01*
X77123238Y-95517092D01*
X76945577Y-95378812D01*
X76945578Y-95378812D01*
X76945576Y-95378811D01*
X76909070Y-95359055D01*
X76859479Y-95309836D01*
X76844371Y-95241619D01*
X76868541Y-95176064D01*
X76909070Y-95140945D01*
X76909084Y-95140936D01*
X76945576Y-95121189D01*
X77123240Y-94982906D01*
X77275722Y-94817268D01*
X77398860Y-94628791D01*
X77489296Y-94422616D01*
X77544564Y-94204368D01*
X77563156Y-93980000D01*
X77544564Y-93755632D01*
X77489296Y-93537384D01*
X77398860Y-93331209D01*
X77275722Y-93142732D01*
X77275719Y-93142729D01*
X77275715Y-93142723D01*
X77123243Y-92977097D01*
X77123238Y-92977092D01*
X76945577Y-92838812D01*
X76945578Y-92838812D01*
X76945576Y-92838811D01*
X76909070Y-92819055D01*
X76859479Y-92769836D01*
X76844371Y-92701619D01*
X76868541Y-92636064D01*
X76909070Y-92600945D01*
X76909084Y-92600936D01*
X76945576Y-92581189D01*
X77123240Y-92442906D01*
X77275722Y-92277268D01*
X77398860Y-92088791D01*
X77489296Y-91882616D01*
X77544564Y-91664368D01*
X77563156Y-91440000D01*
X77544564Y-91215632D01*
X77489296Y-90997384D01*
X77398860Y-90791209D01*
X77275722Y-90602732D01*
X77275719Y-90602729D01*
X77275715Y-90602723D01*
X77123243Y-90437097D01*
X77123238Y-90437092D01*
X76945577Y-90298812D01*
X76945572Y-90298808D01*
X76909068Y-90279053D01*
X76859478Y-90229833D01*
X76844371Y-90161616D01*
X76868542Y-90096061D01*
X76909069Y-90060945D01*
X76945576Y-90041189D01*
X77123240Y-89902906D01*
X77275722Y-89737268D01*
X77398860Y-89548791D01*
X77489296Y-89342616D01*
X77544564Y-89124368D01*
X77563156Y-88900000D01*
X77544564Y-88675632D01*
X77489296Y-88457384D01*
X77398860Y-88251209D01*
X77275722Y-88062732D01*
X77275719Y-88062729D01*
X77275715Y-88062723D01*
X77123243Y-87897097D01*
X77123238Y-87897092D01*
X76945577Y-87758812D01*
X76945578Y-87758812D01*
X76945576Y-87758811D01*
X76909070Y-87739055D01*
X76859479Y-87689836D01*
X76844371Y-87621619D01*
X76868541Y-87556064D01*
X76909070Y-87520945D01*
X76909084Y-87520936D01*
X76945576Y-87501189D01*
X77123240Y-87362906D01*
X77275722Y-87197268D01*
X77398860Y-87008791D01*
X77489296Y-86802616D01*
X77544564Y-86584368D01*
X77563156Y-86360000D01*
X77544564Y-86135632D01*
X77489296Y-85917384D01*
X77398860Y-85711209D01*
X77387868Y-85694385D01*
X77326683Y-85600734D01*
X77275722Y-85522732D01*
X77275719Y-85522729D01*
X77275715Y-85522723D01*
X77123243Y-85357097D01*
X77123238Y-85357092D01*
X76945577Y-85218812D01*
X76945578Y-85218812D01*
X76945576Y-85218811D01*
X76909070Y-85199055D01*
X76859479Y-85149836D01*
X76844371Y-85081619D01*
X76868541Y-85016064D01*
X76909070Y-84980945D01*
X76909084Y-84980936D01*
X76945576Y-84961189D01*
X77123240Y-84822906D01*
X77275722Y-84657268D01*
X77375008Y-84505300D01*
X77401666Y-84464497D01*
X77402791Y-84465232D01*
X77447609Y-84420086D01*
X77507433Y-84404700D01*
X87468414Y-84404700D01*
X87476513Y-84405230D01*
X87510800Y-84409745D01*
X87549119Y-84404700D01*
X87549121Y-84404700D01*
X87663437Y-84389650D01*
X87764008Y-84347990D01*
X87764011Y-84347990D01*
X87805673Y-84330734D01*
X87850184Y-84296579D01*
X87850184Y-84296577D01*
X87927813Y-84237013D01*
X87948875Y-84209562D01*
X87954216Y-84203472D01*
X90028880Y-82128809D01*
X90090201Y-82095326D01*
X90102677Y-82093272D01*
X90225641Y-82079418D01*
X90225644Y-82079417D01*
X90225647Y-82079417D01*
X90397615Y-82019243D01*
X90551881Y-81922311D01*
X90680711Y-81793481D01*
X90777643Y-81639215D01*
X90837817Y-81467247D01*
X90858216Y-81286200D01*
X90857517Y-81280000D01*
X90837818Y-81105158D01*
X90837817Y-81105153D01*
X90820489Y-81055632D01*
X90777643Y-80933185D01*
X90777641Y-80933182D01*
X90777641Y-80933181D01*
X90764257Y-80911881D01*
X90745256Y-80844645D01*
X90752209Y-80804952D01*
X90789616Y-80698051D01*
X90789616Y-80698049D01*
X90789617Y-80698047D01*
X90792089Y-80676111D01*
X90792348Y-80673815D01*
X90819415Y-80609402D01*
X90877010Y-80569847D01*
X90915568Y-80563700D01*
X90998248Y-80563700D01*
X91065287Y-80583385D01*
X91085929Y-80600019D01*
X95959378Y-85473469D01*
X95964731Y-85479573D01*
X95985787Y-85507013D01*
X96016451Y-85530542D01*
X96016452Y-85530543D01*
X96059020Y-85563206D01*
X96107926Y-85600733D01*
X96107927Y-85600733D01*
X96107928Y-85600734D01*
X96250162Y-85659650D01*
X96250163Y-85659650D01*
X96402799Y-85679746D01*
X96402800Y-85679746D01*
X96437096Y-85675230D01*
X96445195Y-85674700D01*
X100227359Y-85674700D01*
X100294398Y-85694385D01*
X100340153Y-85747189D01*
X100350097Y-85816347D01*
X100340915Y-85848510D01*
X100310703Y-85917385D01*
X100255436Y-86135628D01*
X100255434Y-86135640D01*
X100236844Y-86359994D01*
X100236844Y-86360005D01*
X100255434Y-86584359D01*
X100255436Y-86584371D01*
X100310703Y-86802614D01*
X100401140Y-87008792D01*
X100524276Y-87197265D01*
X100524278Y-87197268D01*
X100625869Y-87307624D01*
X100656791Y-87370277D01*
X100648931Y-87439703D01*
X100622320Y-87479287D01*
X87281935Y-100819674D01*
X87275833Y-100825025D01*
X87248387Y-100846086D01*
X87207823Y-100898952D01*
X87154524Y-100968410D01*
X87153884Y-100970113D01*
X87095751Y-101110459D01*
X87095749Y-101110464D01*
X87080700Y-101224779D01*
X87075655Y-101263099D01*
X87075655Y-101263100D01*
X87080169Y-101297385D01*
X87080700Y-101305486D01*
X87080700Y-102964860D01*
X87061015Y-103031899D01*
X87015718Y-103073914D01*
X86919831Y-103125805D01*
X86919822Y-103125812D01*
X86742161Y-103264092D01*
X86678948Y-103332760D01*
X86619061Y-103368750D01*
X86549223Y-103366649D01*
X86491607Y-103327124D01*
X86471538Y-103292110D01*
X86426289Y-103170796D01*
X86392614Y-103125812D01*
X86338661Y-103053739D01*
X86221604Y-102966111D01*
X86218250Y-102964860D01*
X86084603Y-102915011D01*
X86024054Y-102908500D01*
X86024038Y-102908500D01*
X84226762Y-102908500D01*
X84226745Y-102908500D01*
X84166197Y-102915011D01*
X84166195Y-102915011D01*
X84029195Y-102966111D01*
X83912139Y-103053739D01*
X83824511Y-103170795D01*
X83773411Y-103307795D01*
X83773411Y-103307797D01*
X83766900Y-103368345D01*
X83766900Y-105165654D01*
X83773411Y-105226202D01*
X83773411Y-105226204D01*
X83788983Y-105267952D01*
X83824511Y-105363204D01*
X83912139Y-105480261D01*
X84029196Y-105567889D01*
X84166199Y-105618989D01*
X84193450Y-105621918D01*
X84226745Y-105625499D01*
X84226762Y-105625500D01*
X85605647Y-105625500D01*
X85672686Y-105645185D01*
X85693328Y-105661819D01*
X86135478Y-106103969D01*
X86140831Y-106110073D01*
X86157351Y-106131602D01*
X86161887Y-106137513D01*
X86192551Y-106161042D01*
X86284027Y-106231234D01*
X86333367Y-106251671D01*
X86426263Y-106290150D01*
X86534794Y-106304438D01*
X86540563Y-106305198D01*
X86540579Y-106305200D01*
X86540581Y-106305200D01*
X86578900Y-106310245D01*
X86613188Y-106305730D01*
X86621286Y-106305200D01*
X93816614Y-106305200D01*
X93824713Y-106305730D01*
X93859000Y-106310245D01*
X93897319Y-106305200D01*
X93897321Y-106305200D01*
X94011637Y-106290150D01*
X94112208Y-106248490D01*
X94112211Y-106248490D01*
X94153873Y-106231234D01*
X94198384Y-106197079D01*
X94198384Y-106197077D01*
X94276013Y-106137513D01*
X94297075Y-106110062D01*
X94302420Y-106103969D01*
X100425633Y-99980756D01*
X100486954Y-99947273D01*
X100556646Y-99952257D01*
X100604539Y-99984454D01*
X100676760Y-100062906D01*
X100854424Y-100201189D01*
X100897693Y-100224605D01*
X100897695Y-100224606D01*
X100947286Y-100273825D01*
X100962394Y-100342042D01*
X100938224Y-100407597D01*
X100909802Y-100435236D01*
X100728922Y-100561890D01*
X100728920Y-100561891D01*
X100561891Y-100728920D01*
X100561886Y-100728926D01*
X100426400Y-100922420D01*
X100426399Y-100922422D01*
X100326570Y-101136507D01*
X100326567Y-101136513D01*
X100269364Y-101349999D01*
X100269364Y-101350000D01*
X101166314Y-101350000D01*
X101140507Y-101390156D01*
X101100000Y-101528111D01*
X101100000Y-101671889D01*
X101140507Y-101809844D01*
X101166314Y-101850000D01*
X100269364Y-101850000D01*
X100326567Y-102063486D01*
X100326570Y-102063492D01*
X100426399Y-102277578D01*
X100561894Y-102471082D01*
X100728917Y-102638105D01*
X100922421Y-102773600D01*
X101136507Y-102873429D01*
X101136516Y-102873433D01*
X101350000Y-102930634D01*
X101350000Y-102035501D01*
X101457685Y-102084680D01*
X101564237Y-102100000D01*
X101635763Y-102100000D01*
X101742315Y-102084680D01*
X101850000Y-102035501D01*
X101850000Y-102930633D01*
X102063483Y-102873433D01*
X102063492Y-102873429D01*
X102277578Y-102773600D01*
X102471082Y-102638105D01*
X102638105Y-102471082D01*
X102773600Y-102277578D01*
X102873429Y-102063492D01*
X102873432Y-102063486D01*
X102930636Y-101850000D01*
X102033686Y-101850000D01*
X102059493Y-101809844D01*
X102100000Y-101671889D01*
X102100000Y-101528111D01*
X102059493Y-101390156D01*
X102033686Y-101350000D01*
X102930636Y-101350000D01*
X102930635Y-101349999D01*
X102873432Y-101136513D01*
X102873429Y-101136507D01*
X102773600Y-100922422D01*
X102773599Y-100922420D01*
X102638113Y-100728926D01*
X102638108Y-100728920D01*
X102471082Y-100561894D01*
X102290197Y-100435236D01*
X102246572Y-100380659D01*
X102239380Y-100311160D01*
X102270902Y-100248806D01*
X102302300Y-100224608D01*
X102345576Y-100201189D01*
X102523240Y-100062906D01*
X102675722Y-99897268D01*
X102798860Y-99708791D01*
X102889296Y-99502616D01*
X102944564Y-99284368D01*
X102963156Y-99060000D01*
X102944564Y-98835632D01*
X102889296Y-98617384D01*
X102798860Y-98411209D01*
X102798855Y-98411202D01*
X102675723Y-98222734D01*
X102675715Y-98222723D01*
X102523243Y-98057097D01*
X102523238Y-98057092D01*
X102345577Y-97918812D01*
X102345577Y-97918811D01*
X102302303Y-97895393D01*
X102252713Y-97846173D01*
X102237605Y-97777957D01*
X102261775Y-97712401D01*
X102290198Y-97684763D01*
X102471079Y-97558108D01*
X102638105Y-97391082D01*
X102773600Y-97197578D01*
X102873429Y-96983492D01*
X102873432Y-96983486D01*
X102930636Y-96770000D01*
X102033686Y-96770000D01*
X102059493Y-96729844D01*
X102100000Y-96591889D01*
X102100000Y-96448111D01*
X102059493Y-96310156D01*
X102033686Y-96270000D01*
X102930636Y-96270000D01*
X102930635Y-96269999D01*
X102873432Y-96056513D01*
X102873429Y-96056507D01*
X102773600Y-95842422D01*
X102773599Y-95842420D01*
X102638113Y-95648926D01*
X102638108Y-95648920D01*
X102471082Y-95481894D01*
X102290197Y-95355236D01*
X102246572Y-95300659D01*
X102239380Y-95231160D01*
X102270902Y-95168806D01*
X102302300Y-95144608D01*
X102345576Y-95121189D01*
X102523240Y-94982906D01*
X102675722Y-94817268D01*
X102798860Y-94628791D01*
X102889296Y-94422616D01*
X102944564Y-94204368D01*
X102963156Y-93980000D01*
X102944564Y-93755632D01*
X102889296Y-93537384D01*
X102798860Y-93331209D01*
X102675722Y-93142732D01*
X102675719Y-93142729D01*
X102675715Y-93142723D01*
X102523243Y-92977097D01*
X102523238Y-92977092D01*
X102345577Y-92838812D01*
X102345572Y-92838808D01*
X102309068Y-92819053D01*
X102259478Y-92769833D01*
X102244371Y-92701616D01*
X102268542Y-92636061D01*
X102309069Y-92600945D01*
X102345576Y-92581189D01*
X102523240Y-92442906D01*
X102675722Y-92277268D01*
X102798860Y-92088791D01*
X102889296Y-91882616D01*
X102944564Y-91664368D01*
X102963156Y-91440000D01*
X102944564Y-91215632D01*
X102889296Y-90997384D01*
X102798860Y-90791209D01*
X102675722Y-90602732D01*
X102675719Y-90602729D01*
X102675715Y-90602723D01*
X102574082Y-90492322D01*
X102543159Y-90429668D01*
X102551019Y-90360242D01*
X102577627Y-90320661D01*
X103083579Y-89814709D01*
X103089664Y-89809373D01*
X103117113Y-89788313D01*
X103195906Y-89685627D01*
X103210834Y-89666173D01*
X103269750Y-89523937D01*
X103289846Y-89371300D01*
X103285331Y-89337006D01*
X103284800Y-89328904D01*
X103284800Y-85945485D01*
X103285331Y-85937383D01*
X103289845Y-85903100D01*
X103284800Y-85864779D01*
X103269750Y-85750463D01*
X103211610Y-85610101D01*
X103210973Y-85608408D01*
X103176677Y-85563713D01*
X103176677Y-85563712D01*
X103176676Y-85563712D01*
X103117113Y-85486087D01*
X103117111Y-85486085D01*
X103117110Y-85486084D01*
X103089664Y-85465024D01*
X103083561Y-85459671D01*
X102570728Y-84946838D01*
X102537243Y-84885515D01*
X102542227Y-84815823D01*
X102567176Y-84775178D01*
X102675722Y-84657268D01*
X102798860Y-84468791D01*
X102889296Y-84262616D01*
X102944564Y-84044368D01*
X102963156Y-83820000D01*
X102944564Y-83595632D01*
X102889296Y-83377384D01*
X102798860Y-83171209D01*
X102675722Y-82982732D01*
X102675719Y-82982729D01*
X102675715Y-82982723D01*
X102523243Y-82817097D01*
X102523238Y-82817092D01*
X102345577Y-82678812D01*
X102345578Y-82678812D01*
X102345576Y-82678811D01*
X102309070Y-82659055D01*
X102259479Y-82609836D01*
X102244371Y-82541619D01*
X102268541Y-82476064D01*
X102309070Y-82440945D01*
X102309084Y-82440936D01*
X102345576Y-82421189D01*
X102523240Y-82282906D01*
X102675722Y-82117268D01*
X102798860Y-81928791D01*
X102889296Y-81722616D01*
X102944564Y-81504368D01*
X102947640Y-81467246D01*
X102963156Y-81280005D01*
X102963156Y-81279994D01*
X102944565Y-81055640D01*
X102944563Y-81055628D01*
X102895357Y-80861318D01*
X102889296Y-80837384D01*
X102798860Y-80631209D01*
X102794607Y-80624700D01*
X102737290Y-80536970D01*
X102675722Y-80442732D01*
X102661462Y-80427242D01*
X102585873Y-80345130D01*
X102554951Y-80282475D01*
X102562811Y-80213049D01*
X102589419Y-80173469D01*
X103104279Y-79658609D01*
X103110364Y-79653273D01*
X103137813Y-79632213D01*
X103198964Y-79552519D01*
X103231534Y-79510073D01*
X103267315Y-79423689D01*
X103290450Y-79367837D01*
X103305500Y-79253521D01*
X103305500Y-79253519D01*
X103310545Y-79215200D01*
X103306030Y-79180911D01*
X103305500Y-79172811D01*
X103305500Y-78331785D01*
X103306031Y-78323683D01*
X103310545Y-78289400D01*
X103302628Y-78229266D01*
X103290450Y-78136763D01*
X103244466Y-78025749D01*
X103231534Y-77994527D01*
X103185299Y-77934273D01*
X103147542Y-77885066D01*
X103137812Y-77872385D01*
X103110364Y-77851324D01*
X103104261Y-77845971D01*
X102577631Y-77319341D01*
X102544146Y-77258018D01*
X102549130Y-77188326D01*
X102574083Y-77147677D01*
X102675715Y-77037276D01*
X102675716Y-77037274D01*
X102675722Y-77037268D01*
X102798860Y-76848791D01*
X102889296Y-76642616D01*
X102944564Y-76424368D01*
X102944565Y-76424359D01*
X102963156Y-76200005D01*
X102963156Y-76199994D01*
X102944565Y-75975640D01*
X102944563Y-75975628D01*
X102941876Y-75965018D01*
X102889296Y-75757384D01*
X102798860Y-75551209D01*
X102675722Y-75362732D01*
X102675719Y-75362729D01*
X102675715Y-75362723D01*
X102523243Y-75197097D01*
X102523238Y-75197092D01*
X102374787Y-75081547D01*
X102345576Y-75058811D01*
X102309070Y-75039055D01*
X102259479Y-74989836D01*
X102244371Y-74921619D01*
X102268541Y-74856064D01*
X102309070Y-74820945D01*
X102309084Y-74820936D01*
X102345576Y-74801189D01*
X102523240Y-74662906D01*
X102626657Y-74550566D01*
X102675715Y-74497276D01*
X102675716Y-74497274D01*
X102675722Y-74497268D01*
X102798860Y-74308791D01*
X102889296Y-74102616D01*
X102944564Y-73884368D01*
X102944565Y-73884359D01*
X102963156Y-73660005D01*
X102963156Y-73659994D01*
X102944565Y-73435640D01*
X102944563Y-73435628D01*
X102932325Y-73387300D01*
X102889296Y-73217384D01*
X102798860Y-73011209D01*
X102675722Y-72822732D01*
X102675719Y-72822729D01*
X102675715Y-72822723D01*
X102523243Y-72657097D01*
X102523238Y-72657092D01*
X102345577Y-72518812D01*
X102345578Y-72518812D01*
X102345576Y-72518811D01*
X102309070Y-72499055D01*
X102259479Y-72449836D01*
X102244371Y-72381619D01*
X102268541Y-72316064D01*
X102309070Y-72280945D01*
X102309084Y-72280936D01*
X102345576Y-72261189D01*
X102523240Y-72122906D01*
X102627748Y-72009381D01*
X102675715Y-71957276D01*
X102675716Y-71957274D01*
X102675722Y-71957268D01*
X102798860Y-71768791D01*
X102889296Y-71562616D01*
X102944564Y-71344368D01*
X102963156Y-71120000D01*
X102959973Y-71081589D01*
X102944565Y-70895640D01*
X102944563Y-70895628D01*
X102916380Y-70784336D01*
X102889296Y-70677384D01*
X102798860Y-70471209D01*
X102798855Y-70471202D01*
X102675723Y-70282734D01*
X102675715Y-70282723D01*
X102523243Y-70117097D01*
X102523238Y-70117092D01*
X102345577Y-69978812D01*
X102345578Y-69978812D01*
X102345576Y-69978811D01*
X102309070Y-69959055D01*
X102259479Y-69909836D01*
X102244371Y-69841619D01*
X102268541Y-69776064D01*
X102309070Y-69740945D01*
X102309084Y-69740936D01*
X102345576Y-69721189D01*
X102523240Y-69582906D01*
X102629689Y-69467273D01*
X102675715Y-69417276D01*
X102675716Y-69417274D01*
X102675722Y-69417268D01*
X102798860Y-69228791D01*
X102889296Y-69022616D01*
X102944564Y-68804368D01*
X102948794Y-68753319D01*
X102963156Y-68580005D01*
X102963156Y-68579994D01*
X102944565Y-68355640D01*
X102944563Y-68355628D01*
X102895780Y-68162989D01*
X102889296Y-68137384D01*
X102798860Y-67931209D01*
X102798855Y-67931202D01*
X102675723Y-67742734D01*
X102675715Y-67742723D01*
X102523243Y-67577097D01*
X102523238Y-67577092D01*
X102345577Y-67438812D01*
X102345578Y-67438812D01*
X102345576Y-67438811D01*
X102309070Y-67419055D01*
X102259479Y-67369836D01*
X102244371Y-67301619D01*
X102268541Y-67236064D01*
X102309070Y-67200945D01*
X102309084Y-67200936D01*
X102345576Y-67181189D01*
X102523240Y-67042906D01*
X102675722Y-66877268D01*
X102798860Y-66688791D01*
X102889296Y-66482616D01*
X102944564Y-66264368D01*
X102944983Y-66259311D01*
X102963156Y-66040005D01*
X102963156Y-66039994D01*
X102944565Y-65815640D01*
X102944563Y-65815628D01*
X102936927Y-65785474D01*
X102889296Y-65597384D01*
X102798860Y-65391209D01*
X102798855Y-65391202D01*
X102675723Y-65202734D01*
X102675715Y-65202723D01*
X102523243Y-65037097D01*
X102523238Y-65037092D01*
X102345577Y-64898812D01*
X102345572Y-64898808D01*
X102309068Y-64879053D01*
X102259478Y-64829833D01*
X102244371Y-64761616D01*
X102268542Y-64696061D01*
X102309069Y-64660945D01*
X102345576Y-64641189D01*
X102523240Y-64502906D01*
X102675722Y-64337268D01*
X102798860Y-64148791D01*
X102889296Y-63942616D01*
X102944564Y-63724368D01*
X102944565Y-63724359D01*
X102963156Y-63500005D01*
X102963156Y-63499994D01*
X102944565Y-63275640D01*
X102944563Y-63275628D01*
X102902728Y-63110426D01*
X102889296Y-63057384D01*
X102798860Y-62851209D01*
X102787868Y-62834385D01*
X102675723Y-62662734D01*
X102675722Y-62662732D01*
X102585871Y-62565129D01*
X102554950Y-62502477D01*
X102562810Y-62433051D01*
X102589418Y-62393470D01*
X103077779Y-61905109D01*
X103083864Y-61899773D01*
X103111313Y-61878713D01*
X103179800Y-61789458D01*
X103205034Y-61756573D01*
X103244890Y-61660351D01*
X103263950Y-61614337D01*
X103279000Y-61500021D01*
X103279000Y-61500019D01*
X103284045Y-61461700D01*
X103279530Y-61427411D01*
X103279000Y-61419311D01*
X103279000Y-60525285D01*
X103279531Y-60517183D01*
X103284045Y-60482900D01*
X103279000Y-60444579D01*
X103263950Y-60330263D01*
X103205811Y-60189905D01*
X103205172Y-60188205D01*
X103134842Y-60096551D01*
X103111313Y-60065887D01*
X103083868Y-60044827D01*
X103077765Y-60039474D01*
X102837345Y-59799054D01*
X102577630Y-59539340D01*
X102544146Y-59478018D01*
X102549130Y-59408327D01*
X102574083Y-59367677D01*
X102675715Y-59257276D01*
X102675716Y-59257274D01*
X102675722Y-59257268D01*
X102798860Y-59068791D01*
X102889296Y-58862616D01*
X102944564Y-58644368D01*
X102963156Y-58420000D01*
X102944564Y-58195632D01*
X102889296Y-57977384D01*
X102798860Y-57771209D01*
X102675722Y-57582732D01*
X102675719Y-57582729D01*
X102675715Y-57582723D01*
X102523243Y-57417097D01*
X102523238Y-57417092D01*
X102345577Y-57278812D01*
X102345572Y-57278808D01*
X102309068Y-57259053D01*
X102259478Y-57209833D01*
X102244371Y-57141616D01*
X102268542Y-57076061D01*
X102309069Y-57040945D01*
X102345576Y-57021189D01*
X102523240Y-56882906D01*
X102675722Y-56717268D01*
X102798860Y-56528791D01*
X102889296Y-56322616D01*
X102944564Y-56104368D01*
X102948406Y-56058003D01*
X102963156Y-55880005D01*
X102963156Y-55879994D01*
X102944565Y-55655640D01*
X102944563Y-55655628D01*
X102889296Y-55437385D01*
X102807508Y-55250926D01*
X102798860Y-55231209D01*
X102675722Y-55042732D01*
X102675719Y-55042729D01*
X102675715Y-55042723D01*
X102530510Y-54884991D01*
X102499587Y-54822337D01*
X102507447Y-54752911D01*
X102551594Y-54698755D01*
X102578405Y-54684827D01*
X102658584Y-54654920D01*
X102696204Y-54640889D01*
X102813261Y-54553261D01*
X102900889Y-54436204D01*
X102951989Y-54299201D01*
X102955591Y-54265692D01*
X102958499Y-54238654D01*
X102958500Y-54238637D01*
X102958500Y-52441362D01*
X102958499Y-52441345D01*
X102955157Y-52410270D01*
X102951989Y-52380799D01*
X102900889Y-52243796D01*
X102813261Y-52126739D01*
X102696204Y-52039111D01*
X102559203Y-51988011D01*
X102498654Y-51981500D01*
X102498638Y-51981500D01*
X100701362Y-51981500D01*
X100701345Y-51981500D01*
X100640797Y-51988011D01*
X100640795Y-51988011D01*
X100503795Y-52039111D01*
X100386739Y-52126739D01*
X100299111Y-52243795D01*
X100248011Y-52380795D01*
X100248011Y-52380797D01*
X100241500Y-52441345D01*
X100241500Y-54238654D01*
X100248011Y-54299202D01*
X100248011Y-54299204D01*
X100299110Y-54436204D01*
X100299111Y-54436204D01*
X100373083Y-54535019D01*
X100397500Y-54600482D01*
X100382648Y-54668755D01*
X100361497Y-54697010D01*
X91641735Y-63416774D01*
X91635633Y-63422125D01*
X91608187Y-63443186D01*
X91608186Y-63443187D01*
X91548621Y-63520812D01*
X91548622Y-63520813D01*
X91514325Y-63565509D01*
X91513686Y-63567208D01*
X91455551Y-63707559D01*
X91455549Y-63707564D01*
X91440500Y-63821879D01*
X91435455Y-63860199D01*
X91435455Y-63860200D01*
X91439969Y-63894485D01*
X91440500Y-63902586D01*
X91440500Y-64385746D01*
X91420815Y-64452785D01*
X91404181Y-64473427D01*
X91389089Y-64488518D01*
X91292158Y-64642782D01*
X91231982Y-64814753D01*
X91231981Y-64814758D01*
X91211584Y-64995796D01*
X91211584Y-64995803D01*
X91231981Y-65176841D01*
X91231982Y-65176846D01*
X91292158Y-65348817D01*
X91318794Y-65391207D01*
X91389089Y-65503081D01*
X91517919Y-65631911D01*
X91672185Y-65728843D01*
X91679090Y-65731259D01*
X91735868Y-65771979D01*
X91761617Y-65836930D01*
X91752704Y-65895747D01*
X91747928Y-65907281D01*
X91697651Y-66028659D01*
X91697650Y-66028663D01*
X91685178Y-66123392D01*
X91656911Y-66187288D01*
X91649924Y-66194883D01*
X91631188Y-66213619D01*
X91534258Y-66367882D01*
X91474082Y-66539853D01*
X91474081Y-66539858D01*
X91453684Y-66720896D01*
X91453684Y-66720903D01*
X91474082Y-66901944D01*
X91479037Y-66916105D01*
X91482598Y-66985884D01*
X91447869Y-67046511D01*
X91402954Y-67074099D01*
X91380784Y-67081857D01*
X91380782Y-67081858D01*
X91226518Y-67178789D01*
X91097689Y-67307618D01*
X91000758Y-67461882D01*
X90940582Y-67633853D01*
X90940581Y-67633858D01*
X90920184Y-67814896D01*
X90920184Y-67814899D01*
X90920896Y-67821221D01*
X90908839Y-67890042D01*
X90861488Y-67941420D01*
X90797675Y-67959100D01*
X90362786Y-67959100D01*
X90354686Y-67958569D01*
X90320400Y-67954055D01*
X90320396Y-67954055D01*
X90288163Y-67958298D01*
X90288147Y-67958301D01*
X90167763Y-67974150D01*
X90167762Y-67974150D01*
X90116703Y-67995300D01*
X90025528Y-68033065D01*
X90025526Y-68033066D01*
X89999975Y-68052673D01*
X89903387Y-68126786D01*
X89882328Y-68154229D01*
X89876976Y-68160332D01*
X89670135Y-68367174D01*
X89664033Y-68372525D01*
X89636588Y-68393586D01*
X89595616Y-68446983D01*
X89542726Y-68515908D01*
X89542088Y-68517605D01*
X89483950Y-68657962D01*
X89483950Y-68657963D01*
X89477152Y-68709595D01*
X89448884Y-68773491D01*
X89390559Y-68811962D01*
X89320695Y-68812792D01*
X89261472Y-68775719D01*
X89249219Y-68759379D01*
X89245413Y-68753321D01*
X89116581Y-68624489D01*
X88962317Y-68527558D01*
X88962315Y-68527557D01*
X88959077Y-68526424D01*
X88956176Y-68524601D01*
X88956047Y-68524539D01*
X88956054Y-68524524D01*
X88912355Y-68497065D01*
X77335123Y-56919833D01*
X77329774Y-56913734D01*
X77308713Y-56886287D01*
X77304375Y-56882958D01*
X77263173Y-56826534D01*
X77259016Y-56756788D01*
X77276053Y-56716761D01*
X77290852Y-56694110D01*
X77398860Y-56528791D01*
X77489296Y-56322616D01*
X77544564Y-56104368D01*
X77548406Y-56058003D01*
X77563156Y-55880005D01*
X77563156Y-55879994D01*
X77544565Y-55655640D01*
X77544563Y-55655628D01*
X77489296Y-55437385D01*
X77407508Y-55250926D01*
X77398860Y-55231209D01*
X77275722Y-55042732D01*
X77275719Y-55042729D01*
X77275715Y-55042723D01*
X77130510Y-54884991D01*
X77099587Y-54822337D01*
X77107447Y-54752911D01*
X77151594Y-54698755D01*
X77178405Y-54684827D01*
X77258584Y-54654920D01*
X77296204Y-54640889D01*
X77413261Y-54553261D01*
X77500889Y-54436204D01*
X77551989Y-54299201D01*
X77555591Y-54265692D01*
X77558499Y-54238654D01*
X77558500Y-54238637D01*
X77558500Y-52441362D01*
X77558499Y-52441345D01*
X77555157Y-52410270D01*
X77551989Y-52380799D01*
X77500889Y-52243796D01*
X77413261Y-52126739D01*
X77296204Y-52039111D01*
X77296204Y-52039110D01*
X77159203Y-51988011D01*
X77098654Y-51981500D01*
X77098638Y-51981500D01*
X75301362Y-51981500D01*
X75301345Y-51981500D01*
X75240797Y-51988011D01*
X75240795Y-51988011D01*
X75103795Y-52039111D01*
X74986739Y-52126739D01*
X74899111Y-52243795D01*
X74848011Y-52380795D01*
X74848011Y-52380797D01*
X74841500Y-52441345D01*
X74841500Y-54238654D01*
X74848011Y-54299202D01*
X74848011Y-54299204D01*
X74899112Y-54436206D01*
X74973083Y-54535020D01*
X74997500Y-54600484D01*
X74982648Y-54668757D01*
X74961497Y-54697011D01*
X74074535Y-55583974D01*
X74068433Y-55589325D01*
X74040988Y-55610386D01*
X73985809Y-55682298D01*
X73947126Y-55732709D01*
X73946488Y-55734405D01*
X73899061Y-55848905D01*
X73855220Y-55903308D01*
X73788926Y-55925373D01*
X73721227Y-55908094D01*
X73673616Y-55856957D01*
X73660500Y-55801452D01*
X73660500Y-50331795D01*
X83981500Y-50331795D01*
X83996416Y-50497541D01*
X84055481Y-50711561D01*
X84055487Y-50711576D01*
X84151819Y-50911612D01*
X84151823Y-50911619D01*
X84282326Y-51091242D01*
X84282328Y-51091244D01*
X84282331Y-51091247D01*
X84282332Y-51091248D01*
X84442817Y-51244687D01*
X84628120Y-51367005D01*
X84832287Y-51454270D01*
X85048754Y-51503677D01*
X85270564Y-51513639D01*
X85490589Y-51483835D01*
X85701756Y-51415222D01*
X85897278Y-51310007D01*
X86070871Y-51171571D01*
X86216956Y-51004364D01*
X86330837Y-50813759D01*
X86386093Y-50666529D01*
X86428080Y-50610681D01*
X86493594Y-50586398D01*
X86502187Y-50586100D01*
X89421010Y-50586100D01*
X89488049Y-50605785D01*
X89533804Y-50658589D01*
X89543748Y-50727747D01*
X89526003Y-50776073D01*
X89506958Y-50806381D01*
X89446782Y-50978353D01*
X89446781Y-50978358D01*
X89426384Y-51159396D01*
X89426384Y-51159403D01*
X89446781Y-51340441D01*
X89446782Y-51340446D01*
X89456076Y-51367005D01*
X89506957Y-51512415D01*
X89603889Y-51666681D01*
X89732719Y-51795511D01*
X89886985Y-51892443D01*
X90058953Y-51952616D01*
X90058953Y-51952617D01*
X90058957Y-51952618D01*
X90181923Y-51966472D01*
X90246337Y-51993538D01*
X90255721Y-52002011D01*
X94295987Y-56042278D01*
X94329472Y-56103601D01*
X94331526Y-56116075D01*
X94345381Y-56239041D01*
X94405557Y-56411016D01*
X94477169Y-56524985D01*
X94502489Y-56565281D01*
X94631319Y-56694111D01*
X94785585Y-56791043D01*
X94957553Y-56851217D01*
X94957558Y-56851218D01*
X95138596Y-56871616D01*
X95138600Y-56871616D01*
X95138604Y-56871616D01*
X95319641Y-56851218D01*
X95319644Y-56851217D01*
X95319647Y-56851217D01*
X95491615Y-56791043D01*
X95645881Y-56694111D01*
X95774711Y-56565281D01*
X95871643Y-56411015D01*
X95931817Y-56239047D01*
X95945673Y-56116075D01*
X95952216Y-56058003D01*
X95952216Y-56057996D01*
X95931818Y-55876958D01*
X95931817Y-55876953D01*
X95924820Y-55856957D01*
X95871643Y-55704985D01*
X95774711Y-55550719D01*
X95645881Y-55421889D01*
X95645880Y-55421889D01*
X95491616Y-55324957D01*
X95319641Y-55264781D01*
X95196675Y-55250926D01*
X95132261Y-55223859D01*
X95122878Y-55215387D01*
X91082611Y-51175121D01*
X91049126Y-51113798D01*
X91047072Y-51101323D01*
X91033218Y-50978357D01*
X91033217Y-50978353D01*
X90975623Y-50813759D01*
X90973043Y-50806385D01*
X90973041Y-50806382D01*
X90973041Y-50806381D01*
X90953997Y-50776073D01*
X90934996Y-50708836D01*
X90955363Y-50642001D01*
X91008631Y-50596786D01*
X91058990Y-50586100D01*
X91376444Y-50586100D01*
X91443483Y-50605785D01*
X91489238Y-50658589D01*
X91495975Y-50677112D01*
X91505483Y-50711567D01*
X91505486Y-50711573D01*
X91601819Y-50911612D01*
X91601823Y-50911619D01*
X91732326Y-51091242D01*
X91732328Y-51091244D01*
X91732331Y-51091247D01*
X91732332Y-51091248D01*
X91892817Y-51244687D01*
X92078120Y-51367005D01*
X92282287Y-51454270D01*
X92498754Y-51503677D01*
X92720564Y-51513639D01*
X92940589Y-51483835D01*
X93151756Y-51415222D01*
X93347278Y-51310007D01*
X93520871Y-51171571D01*
X93666956Y-51004364D01*
X93780837Y-50813759D01*
X93858855Y-50605883D01*
X93898500Y-50387417D01*
X93898500Y-49671001D01*
X93883583Y-49505260D01*
X93883583Y-49505258D01*
X93824518Y-49291238D01*
X93824512Y-49291223D01*
X93728180Y-49091187D01*
X93728176Y-49091180D01*
X93597673Y-48911557D01*
X93597671Y-48911555D01*
X93592927Y-48907019D01*
X93437781Y-48758685D01*
X93402930Y-48698129D01*
X93400535Y-48652875D01*
X93404745Y-48620900D01*
X93400230Y-48586610D01*
X93399699Y-48578508D01*
X93399699Y-48042843D01*
X93399699Y-47504098D01*
X93419384Y-47437063D01*
X93451769Y-47403097D01*
X93527769Y-47348979D01*
X93670562Y-47199222D01*
X93782433Y-47025147D01*
X93859339Y-46833046D01*
X93898500Y-46629862D01*
X93898500Y-45824791D01*
X93883759Y-45670414D01*
X93825462Y-45471872D01*
X93730644Y-45287951D01*
X93730642Y-45287949D01*
X93730641Y-45287946D01*
X93602734Y-45125301D01*
X93602731Y-45125298D01*
X93446347Y-44989790D01*
X93267152Y-44886332D01*
X93071608Y-44818653D01*
X92866791Y-44789205D01*
X92866790Y-44789205D01*
X92866789Y-44789205D01*
X92660101Y-44799051D01*
X92587826Y-44816584D01*
X92459008Y-44847835D01*
X92459004Y-44847837D01*
X92270795Y-44933789D01*
X92270780Y-44933797D01*
X92102231Y-45053820D01*
X92102228Y-45053823D01*
X91959437Y-45203578D01*
X91847566Y-45377654D01*
X91770662Y-45569749D01*
X91770660Y-45569754D01*
X91751260Y-45670414D01*
X91731500Y-45772938D01*
X91731500Y-46578009D01*
X91746241Y-46732386D01*
X91804538Y-46930928D01*
X91889677Y-47096076D01*
X91899358Y-47114853D01*
X92027265Y-47277498D01*
X92027266Y-47277499D01*
X92027268Y-47277501D01*
X92109756Y-47348977D01*
X92187502Y-47416345D01*
X92225276Y-47475123D01*
X92230299Y-47510058D01*
X92230299Y-48159254D01*
X92210614Y-48226293D01*
X92157810Y-48272048D01*
X92088652Y-48281992D01*
X92033414Y-48259572D01*
X92015147Y-48246301D01*
X92010100Y-48242214D01*
X91992418Y-48226293D01*
X91976944Y-48212360D01*
X91976941Y-48212358D01*
X91976938Y-48212356D01*
X91938300Y-48190048D01*
X91932857Y-48186513D01*
X91920505Y-48177539D01*
X91896752Y-48160282D01*
X91894443Y-48159254D01*
X91855984Y-48142131D01*
X91850197Y-48139183D01*
X91811554Y-48116872D01*
X91769118Y-48103083D01*
X91763056Y-48100757D01*
X91722290Y-48082606D01*
X91678639Y-48073328D01*
X91672367Y-48071647D01*
X91629926Y-48057857D01*
X91629928Y-48057857D01*
X91585547Y-48053192D01*
X91579136Y-48052177D01*
X91535487Y-48042900D01*
X91344513Y-48042900D01*
X91344512Y-48042900D01*
X91300865Y-48052176D01*
X91294454Y-48053192D01*
X91250072Y-48057857D01*
X91250071Y-48057857D01*
X91207630Y-48071648D01*
X91201359Y-48073328D01*
X91157712Y-48082605D01*
X91116947Y-48100755D01*
X91110887Y-48103081D01*
X91068451Y-48116870D01*
X91068443Y-48116873D01*
X91029800Y-48139183D01*
X91024016Y-48142130D01*
X90983250Y-48160280D01*
X90983246Y-48160282D01*
X90947142Y-48186512D01*
X90941700Y-48190046D01*
X90903054Y-48212360D01*
X90869896Y-48242216D01*
X90864850Y-48246302D01*
X90828747Y-48272533D01*
X90798886Y-48305696D01*
X90794296Y-48310286D01*
X90761133Y-48340147D01*
X90734902Y-48376250D01*
X90730816Y-48381296D01*
X90700960Y-48414454D01*
X90678646Y-48453100D01*
X90675112Y-48458542D01*
X90648882Y-48494646D01*
X90648880Y-48494650D01*
X90630730Y-48535416D01*
X90627783Y-48541200D01*
X90605473Y-48579843D01*
X90605470Y-48579851D01*
X90591681Y-48622287D01*
X90589355Y-48628347D01*
X90571205Y-48669112D01*
X90561928Y-48712759D01*
X90560248Y-48719030D01*
X90546457Y-48761471D01*
X90546457Y-48761472D01*
X90541792Y-48805854D01*
X90540776Y-48812265D01*
X90531500Y-48855912D01*
X90531500Y-48900535D01*
X90531160Y-48907019D01*
X90526496Y-48951399D01*
X90531160Y-48995778D01*
X90531500Y-49002263D01*
X90531500Y-49046887D01*
X90540777Y-49090536D01*
X90541792Y-49096947D01*
X90546457Y-49141327D01*
X90560247Y-49183767D01*
X90561928Y-49190039D01*
X90571206Y-49233689D01*
X90571207Y-49233692D01*
X90575023Y-49242262D01*
X90584310Y-49311512D01*
X90554683Y-49374789D01*
X90495548Y-49412004D01*
X90461745Y-49416700D01*
X87418255Y-49416700D01*
X87351216Y-49397015D01*
X87305461Y-49344211D01*
X87295517Y-49275053D01*
X87304975Y-49242266D01*
X87308792Y-49233692D01*
X87308794Y-49233688D01*
X87318072Y-49190031D01*
X87319749Y-49183772D01*
X87333542Y-49141328D01*
X87338207Y-49096937D01*
X87339218Y-49090551D01*
X87348500Y-49046887D01*
X87348500Y-49002263D01*
X87348840Y-48995778D01*
X87349845Y-48986204D01*
X87353504Y-48951400D01*
X87350556Y-48923355D01*
X87348840Y-48907019D01*
X87348500Y-48900535D01*
X87348500Y-48855915D01*
X87348500Y-48855913D01*
X87339219Y-48812253D01*
X87338206Y-48805857D01*
X87333542Y-48761472D01*
X87333541Y-48761469D01*
X87333541Y-48761467D01*
X87322354Y-48727042D01*
X87319751Y-48719029D01*
X87318072Y-48712765D01*
X87314961Y-48698129D01*
X87308794Y-48669112D01*
X87290640Y-48628340D01*
X87288313Y-48622276D01*
X87287864Y-48620895D01*
X87274527Y-48579844D01*
X87252209Y-48541190D01*
X87249268Y-48535416D01*
X87231118Y-48494648D01*
X87204884Y-48458540D01*
X87201351Y-48453100D01*
X87179040Y-48414456D01*
X87149177Y-48381290D01*
X87145090Y-48376242D01*
X87118865Y-48340146D01*
X87106043Y-48328602D01*
X87085696Y-48310281D01*
X87081106Y-48305690D01*
X87051253Y-48272534D01*
X87015146Y-48246300D01*
X87010100Y-48242213D01*
X86976947Y-48212362D01*
X86976938Y-48212356D01*
X86938300Y-48190048D01*
X86932857Y-48186513D01*
X86920505Y-48177539D01*
X86896752Y-48160282D01*
X86894443Y-48159254D01*
X86855984Y-48142131D01*
X86850197Y-48139183D01*
X86811554Y-48116872D01*
X86769118Y-48103083D01*
X86763056Y-48100757D01*
X86722290Y-48082606D01*
X86678639Y-48073328D01*
X86672367Y-48071647D01*
X86629926Y-48057857D01*
X86629928Y-48057857D01*
X86585547Y-48053192D01*
X86579136Y-48052177D01*
X86535487Y-48042900D01*
X86344513Y-48042900D01*
X86344512Y-48042900D01*
X86300865Y-48052176D01*
X86294454Y-48053192D01*
X86250072Y-48057857D01*
X86250071Y-48057857D01*
X86207630Y-48071648D01*
X86201359Y-48073328D01*
X86157712Y-48082605D01*
X86116947Y-48100755D01*
X86110887Y-48103081D01*
X86068451Y-48116870D01*
X86068443Y-48116873D01*
X86029800Y-48139183D01*
X86024016Y-48142130D01*
X85983250Y-48160280D01*
X85983246Y-48160282D01*
X85947142Y-48186512D01*
X85941700Y-48190046D01*
X85903054Y-48212360D01*
X85869895Y-48242216D01*
X85864849Y-48246303D01*
X85846586Y-48259572D01*
X85780779Y-48283052D01*
X85712725Y-48267227D01*
X85664030Y-48217121D01*
X85649700Y-48159254D01*
X85649700Y-47504102D01*
X85669385Y-47437063D01*
X85701769Y-47403097D01*
X85777769Y-47348979D01*
X85920562Y-47199222D01*
X86032433Y-47025147D01*
X86109339Y-46833046D01*
X86148500Y-46629862D01*
X86148500Y-45824791D01*
X86133759Y-45670414D01*
X86075462Y-45471872D01*
X85980644Y-45287951D01*
X85980642Y-45287949D01*
X85980641Y-45287946D01*
X85852734Y-45125301D01*
X85852731Y-45125298D01*
X85696347Y-44989790D01*
X85517152Y-44886332D01*
X85321608Y-44818653D01*
X85116791Y-44789205D01*
X85116790Y-44789205D01*
X85116789Y-44789205D01*
X84910101Y-44799051D01*
X84837826Y-44816584D01*
X84709008Y-44847835D01*
X84709004Y-44847837D01*
X84520795Y-44933789D01*
X84520780Y-44933797D01*
X84352231Y-45053820D01*
X84352228Y-45053823D01*
X84209437Y-45203578D01*
X84097566Y-45377654D01*
X84020662Y-45569749D01*
X84020660Y-45569754D01*
X84001260Y-45670414D01*
X83981500Y-45772938D01*
X83981500Y-46578009D01*
X83996241Y-46732386D01*
X84054538Y-46930928D01*
X84139677Y-47096076D01*
X84149358Y-47114853D01*
X84277265Y-47277498D01*
X84277268Y-47277501D01*
X84433650Y-47413007D01*
X84433652Y-47413008D01*
X84437502Y-47416344D01*
X84475276Y-47475122D01*
X84480299Y-47510057D01*
X84480299Y-48578512D01*
X84479768Y-48586612D01*
X84475255Y-48620895D01*
X84475255Y-48620902D01*
X84479500Y-48653153D01*
X84479504Y-48653173D01*
X84480140Y-48658009D01*
X84469358Y-48727042D01*
X84434511Y-48771112D01*
X84359132Y-48831225D01*
X84213046Y-48998432D01*
X84099163Y-49189041D01*
X84099161Y-49189044D01*
X84021144Y-49396917D01*
X83981500Y-49615380D01*
X83981500Y-50331795D01*
X73660500Y-50331795D01*
X73660500Y-48261279D01*
X73660553Y-48258716D01*
X73669493Y-48042564D01*
X73678457Y-47837263D01*
X73678869Y-47832349D01*
X73706064Y-47614185D01*
X73733059Y-47409141D01*
X73733835Y-47404588D01*
X73778906Y-47189633D01*
X73823769Y-46987271D01*
X73824865Y-46983044D01*
X73887543Y-46772513D01*
X73949945Y-46574602D01*
X73951270Y-46570838D01*
X74030973Y-46366578D01*
X74031361Y-46365612D01*
X74110640Y-46174216D01*
X74112190Y-46170777D01*
X74208483Y-45973808D01*
X74209031Y-45972722D01*
X74304712Y-45788921D01*
X74306428Y-45785842D01*
X74418593Y-45597606D01*
X74419448Y-45596218D01*
X74530794Y-45421441D01*
X74532555Y-45418831D01*
X74659882Y-45240499D01*
X74661074Y-45238889D01*
X74787169Y-45074559D01*
X74788999Y-45072289D01*
X74930561Y-44905146D01*
X74932098Y-44903400D01*
X75072103Y-44750613D01*
X75073848Y-44748789D01*
X75228789Y-44593848D01*
X75230613Y-44592103D01*
X75383400Y-44452098D01*
X75385155Y-44450554D01*
X75552289Y-44308999D01*
X75554559Y-44307169D01*
X75718889Y-44181074D01*
X75720499Y-44179882D01*
X75898831Y-44052555D01*
X75901441Y-44050794D01*
X76076218Y-43939448D01*
X76077606Y-43938593D01*
X76265842Y-43826428D01*
X76268921Y-43824712D01*
X76452722Y-43729031D01*
X76453808Y-43728483D01*
X76650777Y-43632190D01*
X76654216Y-43630640D01*
X76845612Y-43551361D01*
X76846578Y-43550973D01*
X77050838Y-43471270D01*
X77054602Y-43469945D01*
X77252513Y-43407543D01*
X77463044Y-43344865D01*
X77467271Y-43343769D01*
X77669633Y-43298906D01*
X77884588Y-43253835D01*
X77889141Y-43253059D01*
X78094185Y-43226064D01*
X78312349Y-43198869D01*
X78317263Y-43198457D01*
X78522682Y-43189488D01*
X78738720Y-43180552D01*
X78741280Y-43180500D01*
X99058720Y-43180500D01*
X99061279Y-43180552D01*
G37*
G04 #@! TD.AperFunction*
G04 #@! TA.AperFunction,Conductor*
G36*
X100356079Y-92064023D02*
G01*
X100412012Y-92105895D01*
X100416545Y-92112370D01*
X100524278Y-92277268D01*
X100524283Y-92277273D01*
X100524284Y-92277276D01*
X100676756Y-92442902D01*
X100676760Y-92442906D01*
X100854424Y-92581189D01*
X100890930Y-92600945D01*
X100940519Y-92650162D01*
X100955629Y-92718378D01*
X100931459Y-92783934D01*
X100890932Y-92819052D01*
X100854432Y-92838805D01*
X100854422Y-92838812D01*
X100676761Y-92977092D01*
X100676756Y-92977097D01*
X100524284Y-93142723D01*
X100524276Y-93142734D01*
X100401140Y-93331207D01*
X100310703Y-93537385D01*
X100255436Y-93755628D01*
X100255434Y-93755640D01*
X100236844Y-93979994D01*
X100236844Y-93980005D01*
X100255434Y-94204359D01*
X100255436Y-94204371D01*
X100310703Y-94422614D01*
X100401140Y-94628792D01*
X100524276Y-94817265D01*
X100524284Y-94817276D01*
X100676756Y-94982902D01*
X100676760Y-94982906D01*
X100854424Y-95121189D01*
X100890930Y-95140945D01*
X100897695Y-95144606D01*
X100947286Y-95193825D01*
X100962394Y-95262042D01*
X100938224Y-95327597D01*
X100909802Y-95355236D01*
X100728922Y-95481890D01*
X100728920Y-95481891D01*
X100561891Y-95648920D01*
X100561886Y-95648926D01*
X100426400Y-95842420D01*
X100426399Y-95842422D01*
X100326570Y-96056507D01*
X100326567Y-96056513D01*
X100269364Y-96269999D01*
X100269364Y-96270000D01*
X101166314Y-96270000D01*
X101140507Y-96310156D01*
X101100000Y-96448111D01*
X101100000Y-96591889D01*
X101140507Y-96729844D01*
X101166314Y-96770000D01*
X100269364Y-96770000D01*
X100326567Y-96983486D01*
X100326570Y-96983492D01*
X100426399Y-97197578D01*
X100561894Y-97391082D01*
X100728917Y-97558105D01*
X100909802Y-97684763D01*
X100953427Y-97739340D01*
X100960619Y-97808839D01*
X100929097Y-97871193D01*
X100897697Y-97895392D01*
X100854427Y-97918809D01*
X100854422Y-97918812D01*
X100676761Y-98057092D01*
X100676756Y-98057097D01*
X100524284Y-98222723D01*
X100524276Y-98222734D01*
X100401143Y-98411202D01*
X100386359Y-98444906D01*
X100341401Y-98498391D01*
X100320257Y-98509654D01*
X100283542Y-98524862D01*
X100224627Y-98549265D01*
X100137920Y-98615798D01*
X100102487Y-98642986D01*
X100081432Y-98670425D01*
X100076080Y-98676528D01*
X94245299Y-104507309D01*
X94183976Y-104540794D01*
X94114284Y-104535810D01*
X94088843Y-104517000D01*
X93179086Y-104517000D01*
X93204893Y-104476844D01*
X93245400Y-104338889D01*
X93245400Y-104195111D01*
X93204893Y-104057156D01*
X93179086Y-104017000D01*
X94076036Y-104017000D01*
X94076035Y-104016999D01*
X94018832Y-103803513D01*
X94018829Y-103803507D01*
X93919000Y-103589422D01*
X93918999Y-103589420D01*
X93783513Y-103395926D01*
X93783508Y-103395920D01*
X93616482Y-103228894D01*
X93422978Y-103093399D01*
X93208892Y-102993570D01*
X93208886Y-102993567D01*
X92995400Y-102936364D01*
X92995400Y-103831498D01*
X92887715Y-103782320D01*
X92781163Y-103767000D01*
X92709637Y-103767000D01*
X92603085Y-103782320D01*
X92495400Y-103831498D01*
X92495400Y-102936364D01*
X92495399Y-102936364D01*
X92281913Y-102993567D01*
X92281907Y-102993570D01*
X92067822Y-103093399D01*
X92067820Y-103093400D01*
X91874326Y-103228886D01*
X91874320Y-103228891D01*
X91707291Y-103395920D01*
X91707290Y-103395922D01*
X91580531Y-103576952D01*
X91525954Y-103620577D01*
X91456455Y-103627769D01*
X91394101Y-103596247D01*
X91375152Y-103573656D01*
X91281122Y-103429732D01*
X91281115Y-103429725D01*
X91281115Y-103429723D01*
X91128643Y-103264097D01*
X91128638Y-103264092D01*
X90950977Y-103125812D01*
X90950968Y-103125805D01*
X90855082Y-103073914D01*
X90805491Y-103024695D01*
X90790100Y-102964860D01*
X90790100Y-101578851D01*
X90809785Y-101511812D01*
X90826414Y-101491175D01*
X100225066Y-92092522D01*
X100286387Y-92059039D01*
X100356079Y-92064023D01*
G37*
G04 #@! TD.AperFunction*
M02*
