M48
; DRILL file {KiCad 7.0.5} date Mon Jun 26 03:35:13 2023
; FORMAT={-:-/ absolute / metric / decimal}
; #@! TF.CreationDate,2023-06-26T03:35:13+05:30
; #@! TF.GenerationSoftware,Kicad,Pcbnew,7.0.5
; #@! TF.FileFunction,MixedPlating,1,2
FMAT,2
METRIC
; #@! TA.AperFunction,Plated,PTH,ViaDrill
T1C0.300
; #@! TA.AperFunction,Plated,PTH,ComponentDrill
T2C0.550
; #@! TA.AperFunction,Plated,PTH,ComponentDrill
T3C0.850
; #@! TA.AperFunction,Plated,PTH,ComponentDrill
T4C1.000
; #@! TA.AperFunction,NonPlated,NPTH,ComponentDrill
T5C0.800
%
G90
G05
T1
X77.374Y-77.255
X82.991Y-75.346
X83.54Y-74.618
X83.541Y-75.876
X84.995Y-66.199
X85.107Y-79.089
X85.292Y-67.564
X86.668Y-72.803
X86.832Y-77.301
X87.15Y-80.04
X87.201Y-73.336
X87.901Y-77.639
X88.14Y-80.06
X88.609Y-69.261
X88.658Y-80.608
X88.658Y-77.636
X89.65Y-71.718
X89.996Y-80.517
X90.045Y-81.286
X90.24Y-51.159
X90.581Y-76.405
X90.585Y-69.114
X91.079Y-74.953
X91.15Y-71.728
X91.18Y-75.791
X91.345Y-69.12
X91.734Y-67.815
X91.846Y-74.9
X91.87Y-76.935
X92.025Y-64.996
X92.267Y-66.721
X93.538Y-67.918
X95.139Y-56.058
T4
X76.2Y-53.34
X76.2Y-55.88
X76.2Y-58.42
X76.2Y-60.96
X76.2Y-63.5
X76.2Y-66.04
X76.2Y-68.58
X76.2Y-71.12
X76.2Y-73.66
X76.2Y-76.2
X76.2Y-78.74
X76.2Y-81.28
X76.2Y-83.82
X76.2Y-86.36
X76.2Y-88.9
X76.2Y-91.44
X76.2Y-93.98
X76.2Y-96.52
X76.2Y-99.06
X76.2Y-101.6
X85.125Y-104.267
X87.665Y-104.267
X90.205Y-104.267
X92.745Y-104.267
X101.6Y-53.34
X101.6Y-55.88
X101.6Y-58.42
X101.6Y-60.96
X101.6Y-63.5
X101.6Y-66.04
X101.6Y-68.58
X101.6Y-71.12
X101.6Y-73.66
X101.6Y-76.2
X101.6Y-78.74
X101.6Y-81.28
X101.6Y-83.82
X101.6Y-86.36
X101.6Y-88.9
X101.6Y-91.44
X101.6Y-93.98
X101.6Y-96.52
X101.6Y-99.06
X101.6Y-101.6
T5
X86.44Y-48.951
X91.44Y-48.951
T2
G00X85.065Y-46.526
M15
G01X85.065Y-45.876
M16
G05
G00X92.815Y-46.526
M15
G01X92.815Y-45.876
M16
G05
T3
G00X85.215Y-50.276
M15
G01X85.215Y-49.726
M16
G05
G00X92.665Y-50.276
M15
G01X92.665Y-49.726
M16
G05
T0
M30
